<mxfile host="app.diagrams.net" agent="Mozilla/5.0 (Windows NT 10.0; Win64; x64) AppleWebKit/537.36 (KHTML, like Gecko) Chrome/129.0.0.0 Safari/537.36" version="24.7.17">
  <diagram name="Page-1" id="c7558073-3199-34d8-9f00-42111426c3f3">
    <mxGraphModel dx="545" dy="826" grid="1" gridSize="10" guides="1" tooltips="1" connect="1" arrows="1" fold="1" page="1" pageScale="1" pageWidth="826" pageHeight="1169" background="none" math="0" shadow="0">
      <root>
        <mxCell id="0" />
        <mxCell id="1" parent="0" />
        <mxCell id="LLdFJ3ch-zDl9OM_hBJ1-295" style="edgeStyle=orthogonalEdgeStyle;rounded=0;orthogonalLoop=1;jettySize=auto;html=1;entryX=0.5;entryY=0;entryDx=0;entryDy=0;strokeColor=#990000;strokeWidth=2;align=center;verticalAlign=middle;fontFamily=Helvetica;fontSize=11;fontColor=default;labelBackgroundColor=default;endArrow=classic;" parent="1" source="LLdFJ3ch-zDl9OM_hBJ1-279" target="LLdFJ3ch-zDl9OM_hBJ1-291" edge="1">
          <mxGeometry relative="1" as="geometry">
            <Array as="points">
              <mxPoint x="1740" y="780" />
              <mxPoint x="1493" y="780" />
            </Array>
          </mxGeometry>
        </mxCell>
        <mxCell id="LLdFJ3ch-zDl9OM_hBJ1-297" style="edgeStyle=orthogonalEdgeStyle;rounded=0;orthogonalLoop=1;jettySize=auto;html=1;strokeColor=#990000;strokeWidth=2;align=center;verticalAlign=middle;fontFamily=Helvetica;fontSize=11;fontColor=default;labelBackgroundColor=default;endArrow=classic;" parent="1" source="LLdFJ3ch-zDl9OM_hBJ1-279" edge="1">
          <mxGeometry relative="1" as="geometry">
            <mxPoint x="1740" y="801" as="targetPoint" />
          </mxGeometry>
        </mxCell>
        <mxCell id="LLdFJ3ch-zDl9OM_hBJ1-298" style="edgeStyle=orthogonalEdgeStyle;rounded=0;orthogonalLoop=1;jettySize=auto;html=1;entryX=0.5;entryY=0;entryDx=0;entryDy=0;strokeColor=#990000;strokeWidth=2;align=center;verticalAlign=middle;fontFamily=Helvetica;fontSize=11;fontColor=default;labelBackgroundColor=default;endArrow=classic;" parent="1" source="LLdFJ3ch-zDl9OM_hBJ1-279" target="LLdFJ3ch-zDl9OM_hBJ1-293" edge="1">
          <mxGeometry relative="1" as="geometry" />
        </mxCell>
        <mxCell id="LLdFJ3ch-zDl9OM_hBJ1-279" value="数据采集与处理" style="whiteSpace=wrap;align=center;verticalAlign=middle;fontStyle=1;strokeWidth=3;fillColor=#FFFFCC;strokeColor=default;fontFamily=Helvetica;fontSize=12;fontColor=default;" parent="1" vertex="1">
          <mxGeometry x="1510" y="730" width="460" height="30" as="geometry" />
        </mxCell>
        <mxCell id="LLdFJ3ch-zDl9OM_hBJ1-290" style="edgeStyle=orthogonalEdgeStyle;rounded=0;orthogonalLoop=1;jettySize=auto;html=1;entryX=0.5;entryY=0;entryDx=0;entryDy=0;strokeColor=#990000;strokeWidth=2;align=center;verticalAlign=middle;fontFamily=Helvetica;fontSize=11;fontColor=default;labelBackgroundColor=default;endArrow=classic;exitX=0.553;exitY=0.996;exitDx=0;exitDy=0;exitPerimeter=0;" parent="1" source="LLdFJ3ch-zDl9OM_hBJ1-293" target="LLdFJ3ch-zDl9OM_hBJ1-288" edge="1">
          <mxGeometry relative="1" as="geometry">
            <mxPoint x="2020" y="910" as="sourcePoint" />
          </mxGeometry>
        </mxCell>
        <mxCell id="LLdFJ3ch-zDl9OM_hBJ1-303" style="edgeStyle=orthogonalEdgeStyle;rounded=0;orthogonalLoop=1;jettySize=auto;html=1;entryX=0.5;entryY=0;entryDx=0;entryDy=0;strokeColor=#990000;strokeWidth=2;align=center;verticalAlign=middle;fontFamily=Helvetica;fontSize=11;fontColor=default;labelBackgroundColor=default;endArrow=classic;" parent="1" target="LLdFJ3ch-zDl9OM_hBJ1-300" edge="1">
          <mxGeometry relative="1" as="geometry">
            <Array as="points">
              <mxPoint x="1739" y="964" />
              <mxPoint x="1493" y="964" />
            </Array>
            <mxPoint x="1738.5555555555552" y="955" as="sourcePoint" />
          </mxGeometry>
        </mxCell>
        <mxCell id="IWGfpIzzpQJcRWPzxUNd-96" style="edgeStyle=orthogonalEdgeStyle;rounded=0;orthogonalLoop=1;jettySize=auto;html=1;entryX=0.5;entryY=-0.019;entryDx=0;entryDy=0;strokeColor=#990000;strokeWidth=2;align=center;verticalAlign=middle;fontFamily=Helvetica;fontSize=11;fontColor=default;labelBackgroundColor=default;endArrow=classic;entryPerimeter=0;" edge="1" parent="1" source="LLdFJ3ch-zDl9OM_hBJ1-288" target="LLdFJ3ch-zDl9OM_hBJ1-299">
          <mxGeometry relative="1" as="geometry" />
        </mxCell>
        <mxCell id="LLdFJ3ch-zDl9OM_hBJ1-288" value="多场景洪水灾害模拟模型开发" style="whiteSpace=wrap;align=center;verticalAlign=middle;fontStyle=1;strokeWidth=3;fillColor=#FFFFCC;rounded=0;strokeColor=default;fontFamily=Helvetica;fontSize=12;fontColor=default;" parent="1" vertex="1">
          <mxGeometry x="1508.5" y="921" width="460" height="29" as="geometry" />
        </mxCell>
        <mxCell id="LLdFJ3ch-zDl9OM_hBJ1-294" style="edgeStyle=orthogonalEdgeStyle;rounded=0;orthogonalLoop=1;jettySize=auto;html=1;strokeColor=#990000;strokeWidth=2;align=center;verticalAlign=middle;fontFamily=Helvetica;fontSize=11;fontColor=default;labelBackgroundColor=default;endArrow=classic;" parent="1" source="LLdFJ3ch-zDl9OM_hBJ1-291" target="LLdFJ3ch-zDl9OM_hBJ1-288" edge="1">
          <mxGeometry relative="1" as="geometry" />
        </mxCell>
        <mxCell id="LLdFJ3ch-zDl9OM_hBJ1-291" value="&lt;p style=&quot;margin: 0px; margin-top: 4px; text-align: center; text-decoration: underline;&quot;&gt;&lt;span style=&quot;text-wrap: wrap; background-color: initial;&quot;&gt;多源数据采集&lt;/span&gt;&lt;strong&gt;&lt;br&gt;&lt;/strong&gt;&lt;/p&gt;&lt;hr&gt;&lt;p style=&quot;margin: 0px; margin-left: 8px;&quot;&gt;&lt;span style=&quot;text-wrap: wrap;&quot;&gt;DEM、DOM、气象数据、实测水文数据、历史灾害记录等&lt;/span&gt;&lt;br&gt;&lt;/p&gt;" style="verticalAlign=middle;align=center;overflow=fill;fontSize=12;fontFamily=Helvetica;html=1;rounded=1;fontStyle=1;strokeWidth=3;fillColor=#E6FFCC" parent="1" vertex="1">
          <mxGeometry x="1400" y="800.5" width="186" height="79" as="geometry" />
        </mxCell>
        <mxCell id="LLdFJ3ch-zDl9OM_hBJ1-292" value="&lt;p style=&quot;margin: 0px; margin-top: 4px; text-align: center; text-decoration: underline;&quot;&gt;&lt;span style=&quot;text-wrap: wrap; background-color: initial;&quot;&gt;数据清洗&lt;/span&gt;&lt;strong&gt;&lt;br&gt;&lt;/strong&gt;&lt;/p&gt;&lt;hr&gt;&lt;p style=&quot;margin: 0px; margin-left: 8px;&quot;&gt;&lt;span style=&quot;text-wrap: wrap;&quot;&gt;多源数据进行清洗、格式转换和插值处理&lt;/span&gt;&lt;br&gt;&lt;/p&gt;" style="verticalAlign=middle;align=center;overflow=fill;fontSize=12;fontFamily=Helvetica;html=1;rounded=1;fontStyle=1;strokeWidth=3;fillColor=#E6FFCC" parent="1" vertex="1">
          <mxGeometry x="1647" y="800.5" width="186" height="79" as="geometry" />
        </mxCell>
        <mxCell id="LLdFJ3ch-zDl9OM_hBJ1-293" value="&lt;p style=&quot;margin: 0px; margin-top: 4px; text-align: center; text-decoration: underline;&quot;&gt;&lt;span style=&quot;text-wrap: wrap; background-color: initial;&quot;&gt;数据预处理&lt;/span&gt;&lt;strong&gt;&lt;br&gt;&lt;/strong&gt;&lt;/p&gt;&lt;hr&gt;&lt;p style=&quot;margin: 0px; margin-left: 8px;&quot;&gt;&lt;span style=&quot;text-wrap: wrap;&quot;&gt;DEM裁剪、填洼等数据预处理&lt;/span&gt;&lt;br&gt;&lt;/p&gt;" style="verticalAlign=middle;align=center;overflow=fill;fontSize=12;fontFamily=Helvetica;html=1;rounded=1;fontStyle=1;strokeWidth=3;fillColor=#E6FFCC" parent="1" vertex="1">
          <mxGeometry x="1899" y="800.5" width="186" height="79" as="geometry" />
        </mxCell>
        <mxCell id="LLdFJ3ch-zDl9OM_hBJ1-299" value="&lt;p style=&quot;margin: 4px 0px 0px; text-decoration: underline;&quot;&gt;&lt;span style=&quot;text-wrap: wrap; background-color: initial;&quot;&gt;智能优化算法嵌入&lt;/span&gt;&lt;strong&gt;&lt;br&gt;&lt;/strong&gt;&lt;/p&gt;&lt;hr&gt;&lt;p style=&quot;margin: 0px; margin-left: 8px;&quot;&gt;&lt;span style=&quot;background-color: initial;&quot;&gt;在实测数据基础上对模型参数&lt;/span&gt;&lt;/p&gt;&lt;p style=&quot;margin: 0px; margin-left: 8px;&quot;&gt;&lt;span style=&quot;background-color: initial;&quot;&gt;如糙率、流量等进行动态优化&lt;/span&gt;&lt;/p&gt;&lt;p style=&quot;margin: 0px; margin-left: 8px;&quot;&gt;&lt;span style=&quot;background-color: initial;&quot;&gt;提升不同场景下模型精度&lt;/span&gt;&lt;br&gt;&lt;/p&gt;" style="verticalAlign=middle;align=center;overflow=fill;fontSize=12;fontFamily=Helvetica;html=1;rounded=1;fontStyle=1;strokeWidth=3;fillColor=#E6FFCC" parent="1" vertex="1">
          <mxGeometry x="1645.5" y="986" width="186" height="79" as="geometry" />
        </mxCell>
        <mxCell id="IWGfpIzzpQJcRWPzxUNd-98" style="edgeStyle=orthogonalEdgeStyle;rounded=0;orthogonalLoop=1;jettySize=auto;html=1;strokeColor=#990000;strokeWidth=2;align=center;verticalAlign=middle;fontFamily=Helvetica;fontSize=11;fontColor=default;labelBackgroundColor=default;endArrow=classic;" edge="1" parent="1" source="LLdFJ3ch-zDl9OM_hBJ1-300" target="IWGfpIzzpQJcRWPzxUNd-97">
          <mxGeometry relative="1" as="geometry" />
        </mxCell>
        <mxCell id="LLdFJ3ch-zDl9OM_hBJ1-300" value="&lt;p style=&quot;margin: 4px 0px 0px; text-decoration: underline;&quot;&gt;&lt;span style=&quot;text-wrap: wrap; background-color: initial;&quot;&gt;场景分类&lt;/span&gt;&lt;strong&gt;&lt;br&gt;&lt;/strong&gt;&lt;/p&gt;&lt;hr&gt;&lt;p style=&quot;margin: 0px; margin-left: 8px;&quot;&gt;&lt;span style=&quot;background-color: initial;&quot;&gt;根据不同的灾害类型&lt;/span&gt;&lt;/p&gt;&lt;p style=&quot;margin: 0px; margin-left: 8px;&quot;&gt;&lt;span style=&quot;background-color: initial;&quot;&gt;如风暴潮、溃坝、暴雨等&lt;/span&gt;&lt;/p&gt;&lt;p style=&quot;margin: 0px; margin-left: 8px;&quot;&gt;&lt;span style=&quot;background-color: initial;&quot;&gt;进行分类&lt;/span&gt;&lt;/p&gt;" style="verticalAlign=middle;align=center;overflow=fill;fontSize=12;fontFamily=Helvetica;html=1;rounded=1;fontStyle=1;strokeWidth=3;fillColor=#E6FFCC;strokeColor=default;fontColor=default;" parent="1" vertex="1">
          <mxGeometry x="1400" y="986" width="186" height="79" as="geometry" />
        </mxCell>
        <mxCell id="IWGfpIzzpQJcRWPzxUNd-99" style="edgeStyle=orthogonalEdgeStyle;rounded=0;orthogonalLoop=1;jettySize=auto;html=1;strokeColor=#990000;strokeWidth=2;align=center;verticalAlign=middle;fontFamily=Helvetica;fontSize=11;fontColor=default;labelBackgroundColor=default;endArrow=classic;" edge="1" parent="1" source="LLdFJ3ch-zDl9OM_hBJ1-301" target="IWGfpIzzpQJcRWPzxUNd-97">
          <mxGeometry relative="1" as="geometry" />
        </mxCell>
        <mxCell id="LLdFJ3ch-zDl9OM_hBJ1-301" value="&lt;p style=&quot;margin: 0px; margin-top: 4px; text-align: center; text-decoration: underline;&quot;&gt;&lt;span style=&quot;text-wrap: wrap; background-color: initial;&quot;&gt;多源数据采集&lt;/span&gt;&lt;strong&gt;&lt;br&gt;&lt;/strong&gt;&lt;/p&gt;&lt;hr&gt;&lt;p style=&quot;margin: 0px; margin-left: 8px;&quot;&gt;&lt;span style=&quot;background-color: initial;&quot;&gt;利用二维、三维水动力学方程&lt;/span&gt;&lt;/p&gt;&lt;p style=&quot;margin: 0px; margin-left: 8px;&quot;&gt;&lt;span style=&quot;background-color: initial;&quot;&gt;如浅水方程、圣维南方程&lt;/span&gt;&lt;/p&gt;&lt;p style=&quot;margin: 0px; margin-left: 8px;&quot;&gt;&lt;span style=&quot;background-color: initial;&quot;&gt;模拟洪水的传播过程&lt;/span&gt;&lt;br&gt;&lt;/p&gt;" style="verticalAlign=middle;align=center;overflow=fill;fontSize=12;fontFamily=Helvetica;html=1;rounded=1;fontStyle=1;strokeWidth=3;fillColor=#E6FFCC" parent="1" vertex="1">
          <mxGeometry x="1899" y="985" width="186" height="79" as="geometry" />
        </mxCell>
        <mxCell id="LLdFJ3ch-zDl9OM_hBJ1-308" style="edgeStyle=orthogonalEdgeStyle;rounded=0;orthogonalLoop=1;jettySize=auto;html=1;strokeColor=#990000;strokeWidth=2;align=center;verticalAlign=middle;fontFamily=Helvetica;fontSize=11;fontColor=default;labelBackgroundColor=default;endArrow=classic;" parent="1" edge="1">
          <mxGeometry relative="1" as="geometry">
            <mxPoint x="2020" y="984" as="targetPoint" />
            <Array as="points">
              <mxPoint x="1739" y="964" />
              <mxPoint x="2020" y="964" />
            </Array>
            <mxPoint x="1738.5555555555552" y="955" as="sourcePoint" />
          </mxGeometry>
        </mxCell>
        <mxCell id="IWGfpIzzpQJcRWPzxUNd-104" style="edgeStyle=orthogonalEdgeStyle;rounded=0;orthogonalLoop=1;jettySize=auto;html=1;entryX=0.5;entryY=0;entryDx=0;entryDy=0;strokeColor=#990000;strokeWidth=2;align=center;verticalAlign=middle;fontFamily=Helvetica;fontSize=11;fontColor=default;labelBackgroundColor=default;endArrow=classic;" edge="1" parent="1" source="IWGfpIzzpQJcRWPzxUNd-97" target="IWGfpIzzpQJcRWPzxUNd-100">
          <mxGeometry relative="1" as="geometry" />
        </mxCell>
        <mxCell id="IWGfpIzzpQJcRWPzxUNd-105" style="edgeStyle=orthogonalEdgeStyle;rounded=0;orthogonalLoop=1;jettySize=auto;html=1;entryX=0.5;entryY=0;entryDx=0;entryDy=0;strokeColor=#990000;strokeWidth=2;align=center;verticalAlign=middle;fontFamily=Helvetica;fontSize=11;fontColor=default;labelBackgroundColor=default;endArrow=classic;" edge="1" parent="1" source="IWGfpIzzpQJcRWPzxUNd-97" target="IWGfpIzzpQJcRWPzxUNd-102">
          <mxGeometry relative="1" as="geometry" />
        </mxCell>
        <mxCell id="IWGfpIzzpQJcRWPzxUNd-106" style="edgeStyle=orthogonalEdgeStyle;rounded=0;orthogonalLoop=1;jettySize=auto;html=1;entryX=0.5;entryY=0;entryDx=0;entryDy=0;strokeColor=#990000;strokeWidth=2;align=center;verticalAlign=middle;fontFamily=Helvetica;fontSize=11;fontColor=default;labelBackgroundColor=default;endArrow=classic;" edge="1" parent="1" source="IWGfpIzzpQJcRWPzxUNd-97" target="IWGfpIzzpQJcRWPzxUNd-101">
          <mxGeometry relative="1" as="geometry" />
        </mxCell>
        <mxCell id="IWGfpIzzpQJcRWPzxUNd-97" value="智能算法与传统水动力模型结合" style="whiteSpace=wrap;align=center;verticalAlign=middle;fontStyle=1;strokeWidth=3;fillColor=#FFFFCC;rounded=0;strokeColor=default;fontFamily=Helvetica;fontSize=12;fontColor=default;" vertex="1" parent="1">
          <mxGeometry x="1508.5" y="1107" width="460" height="29" as="geometry" />
        </mxCell>
        <mxCell id="IWGfpIzzpQJcRWPzxUNd-100" value="&lt;p style=&quot;margin: 0px; margin-top: 4px; text-align: center; text-decoration: underline;&quot;&gt;&lt;span style=&quot;background-color: initial;&quot;&gt;传统模型辅助优化&lt;/span&gt;&lt;strong&gt;&lt;br&gt;&lt;/strong&gt;&lt;/p&gt;&lt;hr&gt;&lt;p style=&quot;margin: 0px; margin-left: 8px;&quot;&gt;&lt;span style=&quot;background-color: initial;&quot;&gt;利用传统模型输出的&lt;/span&gt;&lt;span style=&quot;background-color: initial;&quot;&gt;模拟结果&lt;/span&gt;&lt;span style=&quot;background-color: initial;&quot;&gt;作&lt;/span&gt;&lt;/p&gt;&lt;p style=&quot;margin: 0px; margin-left: 8px;&quot;&gt;&lt;span style=&quot;background-color: initial;&quot;&gt;为深度学习模型的&lt;/span&gt;&lt;span style=&quot;background-color: initial;&quot;&gt;参考数据&lt;/span&gt;&lt;/p&gt;&lt;p style=&quot;margin: 0px; margin-left: 8px;&quot;&gt;&lt;span style=&quot;background-color: initial;&quot;&gt;增强&lt;/span&gt;&lt;span style=&quot;background-color: initial;&quot;&gt;数据稀缺场景下泛化能力&lt;/span&gt;&lt;br&gt;&lt;/p&gt;" style="verticalAlign=middle;align=center;overflow=fill;fontSize=12;fontFamily=Helvetica;html=1;rounded=1;fontStyle=1;strokeWidth=3;fillColor=#E6FFCC" vertex="1" parent="1">
          <mxGeometry x="1645" y="1180" width="186" height="79" as="geometry" />
        </mxCell>
        <mxCell id="IWGfpIzzpQJcRWPzxUNd-109" style="edgeStyle=orthogonalEdgeStyle;rounded=0;orthogonalLoop=1;jettySize=auto;html=1;entryX=0.5;entryY=0;entryDx=0;entryDy=0;strokeColor=#990000;strokeWidth=2;align=center;verticalAlign=middle;fontFamily=Helvetica;fontSize=11;fontColor=default;labelBackgroundColor=default;endArrow=classic;" edge="1" parent="1" source="IWGfpIzzpQJcRWPzxUNd-101" target="IWGfpIzzpQJcRWPzxUNd-107">
          <mxGeometry relative="1" as="geometry" />
        </mxCell>
        <mxCell id="IWGfpIzzpQJcRWPzxUNd-101" value="&lt;p style=&quot;margin: 0px; margin-top: 4px; text-align: center; text-decoration: underline;&quot;&gt;&lt;span style=&quot;background-color: initial;&quot;&gt;深度学习模型设计&lt;/span&gt;&lt;strong&gt;&lt;br&gt;&lt;/strong&gt;&lt;/p&gt;&lt;hr&gt;&lt;p style=&quot;margin: 0px; margin-left: 8px;&quot;&gt;&lt;span style=&quot;background-color: initial;&quot;&gt;设计深度学习网络&lt;/span&gt;&lt;/p&gt;&lt;p style=&quot;margin: 0px; margin-left: 8px;&quot;&gt;&lt;span style=&quot;background-color: initial;&quot;&gt;通过历史洪水数据的特征提取&lt;/span&gt;&lt;/p&gt;&lt;p style=&quot;margin: 0px; margin-left: 8px;&quot;&gt;&lt;span style=&quot;background-color: initial;&quot;&gt;捕捉洪水演进中的潜在规律&lt;/span&gt;&lt;br&gt;&lt;/p&gt;" style="verticalAlign=middle;align=center;overflow=fill;fontSize=12;fontFamily=Helvetica;html=1;rounded=1;fontStyle=1;strokeWidth=3;fillColor=#E6FFCC" vertex="1" parent="1">
          <mxGeometry x="1400" y="1180" width="186" height="79" as="geometry" />
        </mxCell>
        <mxCell id="IWGfpIzzpQJcRWPzxUNd-110" style="edgeStyle=orthogonalEdgeStyle;rounded=0;orthogonalLoop=1;jettySize=auto;html=1;strokeColor=#990000;strokeWidth=2;align=center;verticalAlign=middle;fontFamily=Helvetica;fontSize=11;fontColor=default;labelBackgroundColor=default;endArrow=classic;" edge="1" parent="1" source="IWGfpIzzpQJcRWPzxUNd-102" target="IWGfpIzzpQJcRWPzxUNd-107">
          <mxGeometry relative="1" as="geometry" />
        </mxCell>
        <mxCell id="IWGfpIzzpQJcRWPzxUNd-102" value="&lt;p style=&quot;margin: 0px; margin-top: 4px; text-align: center; text-decoration: underline;&quot;&gt;&lt;span style=&quot;background-color: initial;&quot;&gt;混合模型架构&lt;/span&gt;&lt;strong&gt;&lt;br&gt;&lt;/strong&gt;&lt;/p&gt;&lt;hr&gt;&lt;p style=&quot;margin: 0px; margin-left: 8px;&quot;&gt;&lt;span style=&quot;background-color: initial;&quot;&gt;将深度学习与水动力模型结果&lt;/span&gt;&lt;/p&gt;&lt;p style=&quot;margin: 0px; margin-left: 8px;&quot;&gt;&lt;span style=&quot;background-color: initial;&quot;&gt;进行融合&lt;/span&gt;&lt;/p&gt;&lt;p style=&quot;margin: 0px; margin-left: 8px;&quot;&gt;&lt;span style=&quot;background-color: initial;&quot;&gt;构建多情景下的混合模型&lt;/span&gt;&lt;br&gt;&lt;/p&gt;" style="verticalAlign=middle;align=center;overflow=fill;fontSize=12;fontFamily=Helvetica;html=1;rounded=1;fontStyle=1;strokeWidth=3;fillColor=#E6FFCC" vertex="1" parent="1">
          <mxGeometry x="1899" y="1180" width="186" height="79" as="geometry" />
        </mxCell>
        <mxCell id="IWGfpIzzpQJcRWPzxUNd-114" style="edgeStyle=orthogonalEdgeStyle;rounded=0;orthogonalLoop=1;jettySize=auto;html=1;strokeColor=#990000;strokeWidth=2;align=center;verticalAlign=middle;fontFamily=Helvetica;fontSize=11;fontColor=default;labelBackgroundColor=default;endArrow=classic;" edge="1" parent="1" source="IWGfpIzzpQJcRWPzxUNd-107" target="IWGfpIzzpQJcRWPzxUNd-113">
          <mxGeometry relative="1" as="geometry" />
        </mxCell>
        <mxCell id="IWGfpIzzpQJcRWPzxUNd-117" style="edgeStyle=orthogonalEdgeStyle;rounded=0;orthogonalLoop=1;jettySize=auto;html=1;strokeColor=#990000;strokeWidth=2;align=center;verticalAlign=middle;fontFamily=Helvetica;fontSize=11;fontColor=default;labelBackgroundColor=default;endArrow=classic;" edge="1" parent="1" source="IWGfpIzzpQJcRWPzxUNd-107" target="IWGfpIzzpQJcRWPzxUNd-112">
          <mxGeometry relative="1" as="geometry" />
        </mxCell>
        <mxCell id="IWGfpIzzpQJcRWPzxUNd-118" style="edgeStyle=orthogonalEdgeStyle;rounded=0;orthogonalLoop=1;jettySize=auto;html=1;entryX=0.5;entryY=0;entryDx=0;entryDy=0;strokeColor=#990000;strokeWidth=2;align=center;verticalAlign=middle;fontFamily=Helvetica;fontSize=11;fontColor=default;labelBackgroundColor=default;endArrow=classic;" edge="1" parent="1" source="IWGfpIzzpQJcRWPzxUNd-107" target="IWGfpIzzpQJcRWPzxUNd-111">
          <mxGeometry relative="1" as="geometry" />
        </mxCell>
        <mxCell id="IWGfpIzzpQJcRWPzxUNd-107" value="基于视觉感知的多尺度动态可视化" style="whiteSpace=wrap;align=center;verticalAlign=middle;fontStyle=1;strokeWidth=3;fillColor=#FFFFCC;rounded=0;strokeColor=default;fontFamily=Helvetica;fontSize=12;fontColor=default;" vertex="1" parent="1">
          <mxGeometry x="1508.5" y="1299.5" width="460" height="29" as="geometry" />
        </mxCell>
        <mxCell id="IWGfpIzzpQJcRWPzxUNd-111" value="&lt;p style=&quot;margin: 0px; margin-top: 4px; text-align: center; text-decoration: underline;&quot;&gt;&lt;span style=&quot;background-color: initial;&quot;&gt;实时渲染优化&lt;/span&gt;&lt;strong&gt;&lt;br&gt;&lt;/strong&gt;&lt;/p&gt;&lt;hr&gt;&lt;p style=&quot;margin: 0px; margin-left: 8px;&quot;&gt;&lt;span style=&quot;background-color: initial;&quot;&gt;动态调度算法优化&lt;/span&gt;&lt;/p&gt;&lt;p style=&quot;margin: 0px; margin-left: 8px;&quot;&gt;&lt;span style=&quot;background-color: initial;&quot;&gt;洪水传播过程的实时渲染&lt;/span&gt;&lt;/p&gt;" style="verticalAlign=middle;align=center;overflow=fill;fontSize=12;fontFamily=Helvetica;html=1;rounded=1;fontStyle=1;strokeWidth=3;fillColor=#E6FFCC" vertex="1" parent="1">
          <mxGeometry x="1645.5" y="1370" width="186" height="79" as="geometry" />
        </mxCell>
        <mxCell id="IWGfpIzzpQJcRWPzxUNd-122" style="edgeStyle=orthogonalEdgeStyle;rounded=0;orthogonalLoop=1;jettySize=auto;html=1;strokeColor=#990000;strokeWidth=2;align=center;verticalAlign=middle;fontFamily=Helvetica;fontSize=11;fontColor=default;labelBackgroundColor=default;endArrow=classic;" edge="1" parent="1" source="IWGfpIzzpQJcRWPzxUNd-112" target="IWGfpIzzpQJcRWPzxUNd-119">
          <mxGeometry relative="1" as="geometry" />
        </mxCell>
        <mxCell id="IWGfpIzzpQJcRWPzxUNd-112" value="&lt;p style=&quot;margin: 0px; margin-top: 4px; text-align: center; text-decoration: underline;&quot;&gt;&lt;span style=&quot;background-color: initial;&quot;&gt;多尺度洪水渲染&lt;/span&gt;&lt;strong&gt;&lt;br&gt;&lt;/strong&gt;&lt;/p&gt;&lt;hr&gt;&lt;p style=&quot;margin: 0px; margin-left: 8px;&quot;&gt;&lt;span style=&quot;background-color: initial;&quot;&gt;基于视觉感知理论&lt;/span&gt;&lt;/p&gt;&lt;p style=&quot;margin: 0px; margin-left: 8px;&quot;&gt;&lt;span style=&quot;background-color: initial;&quot;&gt;将不同层次细节的&lt;/span&gt;&lt;/p&gt;&lt;p style=&quot;margin: 0px; margin-left: 8px;&quot;&gt;&lt;span style=&quot;background-color: initial;&quot;&gt;洪水过程网格简化&lt;/span&gt;&lt;/p&gt;" style="verticalAlign=middle;align=center;overflow=fill;fontSize=12;fontFamily=Helvetica;html=1;rounded=1;fontStyle=1;strokeWidth=3;fillColor=#E6FFCC" vertex="1" parent="1">
          <mxGeometry x="1400" y="1370" width="186" height="79" as="geometry" />
        </mxCell>
        <mxCell id="IWGfpIzzpQJcRWPzxUNd-121" style="edgeStyle=orthogonalEdgeStyle;rounded=0;orthogonalLoop=1;jettySize=auto;html=1;entryX=0.5;entryY=0;entryDx=0;entryDy=0;strokeColor=#990000;strokeWidth=2;align=center;verticalAlign=middle;fontFamily=Helvetica;fontSize=11;fontColor=default;labelBackgroundColor=default;endArrow=classic;" edge="1" parent="1" source="IWGfpIzzpQJcRWPzxUNd-113" target="IWGfpIzzpQJcRWPzxUNd-119">
          <mxGeometry relative="1" as="geometry" />
        </mxCell>
        <mxCell id="IWGfpIzzpQJcRWPzxUNd-113" value="&lt;p style=&quot;margin: 0px; margin-top: 4px; text-align: center; text-decoration: underline;&quot;&gt;&lt;span style=&quot;background-color: initial;&quot;&gt;情境定制化可视化&lt;/span&gt;&lt;strong&gt;&lt;br&gt;&lt;/strong&gt;&lt;/p&gt;&lt;hr&gt;&lt;p style=&quot;margin: 0px; margin-left: 8px;&quot;&gt;提供多视角、多尺度、多情境的&lt;/p&gt;&lt;p style=&quot;margin: 0px; margin-left: 8px;&quot;&gt;个性化洪水灾害模拟结果&lt;br&gt;&lt;/p&gt;" style="verticalAlign=middle;align=center;overflow=fill;fontSize=12;fontFamily=Helvetica;html=1;rounded=1;fontStyle=1;strokeWidth=3;fillColor=#E6FFCC" vertex="1" parent="1">
          <mxGeometry x="1899" y="1370" width="186" height="79" as="geometry" />
        </mxCell>
        <mxCell id="IWGfpIzzpQJcRWPzxUNd-127" style="edgeStyle=orthogonalEdgeStyle;rounded=0;orthogonalLoop=1;jettySize=auto;html=1;entryX=0.5;entryY=0;entryDx=0;entryDy=0;strokeColor=#990000;strokeWidth=2;align=center;verticalAlign=middle;fontFamily=Helvetica;fontSize=11;fontColor=default;labelBackgroundColor=default;endArrow=classic;" edge="1" parent="1">
          <mxGeometry relative="1" as="geometry">
            <mxPoint x="1737.5" y="1517" as="sourcePoint" />
            <mxPoint x="1739" y="1550" as="targetPoint" />
          </mxGeometry>
        </mxCell>
        <mxCell id="IWGfpIzzpQJcRWPzxUNd-131" style="edgeStyle=orthogonalEdgeStyle;rounded=0;orthogonalLoop=1;jettySize=auto;html=1;strokeColor=#990000;strokeWidth=2;align=center;verticalAlign=middle;fontFamily=Helvetica;fontSize=11;fontColor=default;labelBackgroundColor=default;endArrow=classic;" edge="1" parent="1" source="IWGfpIzzpQJcRWPzxUNd-119" target="IWGfpIzzpQJcRWPzxUNd-129">
          <mxGeometry relative="1" as="geometry">
            <Array as="points">
              <mxPoint x="1739" y="1530" />
              <mxPoint x="1493" y="1530" />
            </Array>
          </mxGeometry>
        </mxCell>
        <mxCell id="IWGfpIzzpQJcRWPzxUNd-132" style="edgeStyle=orthogonalEdgeStyle;rounded=0;orthogonalLoop=1;jettySize=auto;html=1;strokeColor=#990000;strokeWidth=2;align=center;verticalAlign=middle;fontFamily=Helvetica;fontSize=11;fontColor=default;labelBackgroundColor=default;endArrow=classic;" edge="1" parent="1" source="IWGfpIzzpQJcRWPzxUNd-119" target="IWGfpIzzpQJcRWPzxUNd-128">
          <mxGeometry relative="1" as="geometry">
            <Array as="points">
              <mxPoint x="1739" y="1530" />
              <mxPoint x="1992" y="1530" />
            </Array>
          </mxGeometry>
        </mxCell>
        <mxCell id="IWGfpIzzpQJcRWPzxUNd-119" value="洪水灾害可视化原型系统的构建" style="whiteSpace=wrap;align=center;verticalAlign=middle;fontStyle=1;strokeWidth=3;fillColor=#FFFFCC;rounded=0;strokeColor=default;fontFamily=Helvetica;fontSize=12;fontColor=default;" vertex="1" parent="1">
          <mxGeometry x="1508.5" y="1489" width="460" height="29" as="geometry" />
        </mxCell>
        <mxCell id="IWGfpIzzpQJcRWPzxUNd-123" value="&lt;p style=&quot;margin: 0px; margin-top: 4px; text-align: center; text-decoration: underline;&quot;&gt;模块集成&lt;/p&gt;&lt;hr&gt;&lt;p style=&quot;margin: 0px; margin-left: 8px;&quot;&gt;&lt;span style=&quot;background-color: initial;&quot;&gt;将模拟模型、数据处理模块、&lt;/span&gt;&lt;/p&gt;&lt;p style=&quot;margin: 0px; margin-left: 8px;&quot;&gt;&lt;span style=&quot;background-color: initial;&quot;&gt;可视化模块等集成到系统中&lt;/span&gt;&lt;/p&gt;" style="verticalAlign=middle;align=center;overflow=fill;fontSize=12;fontFamily=Helvetica;html=1;rounded=1;fontStyle=1;strokeWidth=3;fillColor=#E6FFCC" vertex="1" parent="1">
          <mxGeometry x="1647" y="1550" width="186" height="79" as="geometry" />
        </mxCell>
        <mxCell id="IWGfpIzzpQJcRWPzxUNd-128" value="&lt;p style=&quot;margin: 0px; margin-top: 4px; text-align: center; text-decoration: underline;&quot;&gt;&lt;span style=&quot;background-color: initial;&quot;&gt;性能验证&lt;/span&gt;&lt;strong&gt;&lt;br&gt;&lt;/strong&gt;&lt;/p&gt;&lt;hr&gt;&lt;p style=&quot;margin: 0px; margin-left: 8px;&quot;&gt;&lt;span style=&quot;background-color: initial;&quot;&gt;选取实际的洪水灾害案例&lt;/span&gt;&lt;/p&gt;&lt;p style=&quot;margin: 0px; margin-left: 8px;&quot;&gt;&lt;span style=&quot;background-color: initial;&quot;&gt;模拟结果与实际观测数据对比&lt;/span&gt;&lt;/p&gt;&lt;p style=&quot;margin: 0px; margin-left: 8px;&quot;&gt;&lt;span style=&quot;background-color: initial;&quot;&gt;验证模型的精确性与稳定性&lt;/span&gt;&lt;/p&gt;" style="verticalAlign=middle;align=center;overflow=fill;fontSize=12;fontFamily=Helvetica;html=1;rounded=1;fontStyle=1;strokeWidth=3;fillColor=#E6FFCC" vertex="1" parent="1">
          <mxGeometry x="1899" y="1550" width="186" height="79" as="geometry" />
        </mxCell>
        <mxCell id="IWGfpIzzpQJcRWPzxUNd-129" value="&lt;p style=&quot;margin: 0px; margin-top: 4px; text-align: center; text-decoration: underline;&quot;&gt;&lt;strong&gt;系统搭建&lt;/strong&gt;&lt;/p&gt;&lt;hr&gt;&lt;p style=&quot;margin: 0px; margin-left: 8px;&quot;&gt;&lt;span style=&quot;background-color: initial;&quot;&gt;基于Cesium、Vue、JS&lt;/span&gt;&lt;/p&gt;&lt;p style=&quot;margin: 0px; margin-left: 8px;&quot;&gt;&lt;span style=&quot;background-color: initial;&quot;&gt;等技术开发三维WebGIS平台&lt;/span&gt;&lt;/p&gt;" style="verticalAlign=middle;align=center;overflow=fill;fontSize=12;fontFamily=Helvetica;html=1;rounded=1;fontStyle=1;strokeWidth=3;fillColor=#E6FFCC" vertex="1" parent="1">
          <mxGeometry x="1400" y="1550" width="186" height="79" as="geometry" />
        </mxCell>
        <mxCell id="IWGfpIzzpQJcRWPzxUNd-162" value="" style="endArrow=classic;html=1;rounded=0;strokeColor=#990000;strokeWidth=2;align=center;verticalAlign=middle;fontFamily=Helvetica;fontSize=11;fontColor=default;labelBackgroundColor=default;" edge="1" parent="1">
          <mxGeometry width="50" height="50" relative="1" as="geometry">
            <mxPoint x="1300" y="1031" as="sourcePoint" />
            <mxPoint x="1300" y="950" as="targetPoint" />
          </mxGeometry>
        </mxCell>
        <mxCell id="IWGfpIzzpQJcRWPzxUNd-164" value="" style="endArrow=classic;html=1;rounded=0;strokeColor=#990000;strokeWidth=2;align=center;verticalAlign=middle;fontFamily=Helvetica;fontSize=11;fontColor=default;labelBackgroundColor=default;" edge="1" parent="1">
          <mxGeometry width="50" height="50" relative="1" as="geometry">
            <mxPoint x="1330" y="1027" as="sourcePoint" />
            <mxPoint x="1330" y="1110" as="targetPoint" />
          </mxGeometry>
        </mxCell>
        <mxCell id="IWGfpIzzpQJcRWPzxUNd-165" value="" style="endArrow=none;dashed=1;html=1;dashPattern=1 3;strokeWidth=2;rounded=0;strokeColor=default;sketch=1;curveFitting=1;jiggle=2;flowAnimation=0;" edge="1" parent="1">
          <mxGeometry width="50" height="50" relative="1" as="geometry">
            <mxPoint x="1280" y="935" as="sourcePoint" />
            <mxPoint x="1508.5" y="935" as="targetPoint" />
          </mxGeometry>
        </mxCell>
        <mxCell id="IWGfpIzzpQJcRWPzxUNd-166" value="" style="endArrow=none;dashed=1;html=1;dashPattern=1 3;strokeWidth=2;rounded=0;strokeColor=default;sketch=1;curveFitting=1;jiggle=2;flowAnimation=0;" edge="1" parent="1">
          <mxGeometry width="50" height="50" relative="1" as="geometry">
            <mxPoint x="1280" y="1121.02" as="sourcePoint" />
            <mxPoint x="1508.5" y="1121.02" as="targetPoint" />
          </mxGeometry>
        </mxCell>
        <mxCell id="IWGfpIzzpQJcRWPzxUNd-167" value="指导" style="shape=process;whiteSpace=wrap;align=center;verticalAlign=middle;size=0.10112359550561796;fontStyle=1;strokeWidth=3;fillColor=none;strokeColor=none;" vertex="1" parent="1">
          <mxGeometry x="1311" y="1050" width="89" height="20" as="geometry" />
        </mxCell>
        <mxCell id="IWGfpIzzpQJcRWPzxUNd-170" value="修正" style="shape=process;whiteSpace=wrap;align=center;verticalAlign=middle;size=0.10112359550561796;fontStyle=1;strokeWidth=3;fillColor=none;strokeColor=none;" vertex="1" parent="1">
          <mxGeometry x="1280" y="966" width="89" height="20" as="geometry" />
        </mxCell>
      </root>
    </mxGraphModel>
  </diagram>
</mxfile>
